<?xml version="1.0" encoding="utf-8"?>
<!-- Generator: Adobe Illustrator 18.0.0, SVG Export Plug-In . SVG Version: 6.00 Build 0)  -->
<!DOCTYPE svg PUBLIC "-//W3C//DTD SVG 1.1//EN" "http://www.w3.org/Graphics/SVG/1.1/DTD/svg11.dtd">
<svg version="1.1" id="Layer_2" xmlns="http://www.w3.org/2000/svg" xmlns:xlink="http://www.w3.org/1999/xlink" x="0px" y="0px"
	 viewBox="4.7 0 537.7 238.1" enable-background="new 4.7 0 537.7 238.1" xml:space="preserve">
<g>
	<path fill="#7D7D7D" d="M53.6,191.2c-1.1-1.4-2.4-2.6-3.8-3.6c-1.5-1.1-3-2-4.7-2.8c-1.7-0.8-3.4-1.4-5.2-1.8
		c-1.8-0.4-3.6-0.6-5.3-0.6c-3.6,0-6.9,0.7-10,2.1c-3.1,1.4-5.9,3.3-8.2,5.7c-2.4,2.4-4.2,5.2-5.6,8.3c-1.4,3.2-2,6.5-2,9.9
		c0,3.3,0.7,6.5,2,9.5c1.3,3,3.2,5.7,5.6,8c2.4,2.3,5.2,4.1,8.4,5.6c3.2,1.5,6.5,2.2,9.8,2.2c1.7,0,3.4-0.2,5.2-0.6
		c1.8-0.4,3.5-1,5.2-1.8c1.7-0.8,3.3-1.7,4.8-2.7c1.5-1.1,2.8-2.2,3.8-3.5v5c-2.7,2.3-5.7,4-8.9,5.2c-3.2,1.2-6.6,1.8-10.1,1.8
		c-4,0-7.7-0.8-11.3-2.3c-3.6-1.5-6.7-3.6-9.4-6.2c-2.7-2.6-4.9-5.7-6.5-9.2c-1.6-3.5-2.4-7.3-2.4-11.2c0-4,0.8-7.8,2.4-11.3
		c1.6-3.6,3.7-6.6,6.4-9.3c2.7-2.6,5.9-4.7,9.5-6.2c3.6-1.5,7.4-2.3,11.4-2.3c3.5,0,6.8,0.6,10.1,1.9c3.3,1.3,6.2,3.1,8.8,5.4V191.2
		z"/>
	<path fill="#7D7D7D" d="M97.9,178.9c4,0,7.8,0.8,11.4,2.3c3.6,1.5,6.7,3.6,9.4,6.3c2.7,2.7,4.8,5.7,6.4,9.3
		c1.6,3.5,2.4,7.3,2.4,11.2c0,4-0.8,7.8-2.4,11.3c-1.6,3.5-3.7,6.6-6.4,9.2c-2.7,2.7-5.8,4.7-9.4,6.3c-3.6,1.5-7.4,2.3-11.4,2.3
		c-4,0-7.8-0.8-11.4-2.3c-3.6-1.5-6.7-3.6-9.4-6.3c-2.7-2.6-4.8-5.7-6.4-9.2c-1.6-3.5-2.4-7.3-2.4-11.3c0-4,0.8-7.7,2.3-11.2
		c1.6-3.5,3.7-6.6,6.4-9.3c2.7-2.7,5.8-4.7,9.4-6.3C90,179.7,93.8,178.9,97.9,178.9z M97.9,182.3c-3.6,0-6.9,0.7-10,2.1
		c-3.1,1.4-5.9,3.2-8.2,5.6c-2.4,2.3-4.2,5-5.6,8.1c-1.4,3.1-2,6.4-2,9.9c0,3.5,0.7,6.8,2,9.9c1.4,3.1,3.2,5.8,5.6,8.1
		c2.4,2.3,5.1,4.2,8.2,5.6c3.1,1.4,6.5,2.1,10,2.1c3.5,0,6.9-0.7,10-2.1c3.1-1.4,5.9-3.2,8.2-5.6c2.3-2.3,4.2-5.1,5.6-8.2
		c1.4-3.1,2.1-6.4,2.1-9.9c0-3.5-0.7-6.8-2.1-9.9c-1.4-3.1-3.2-5.8-5.6-8.1c-2.3-2.3-5.1-4.2-8.2-5.6
		C104.7,183,101.4,182.3,97.9,182.3z"/>
	<path fill="#7D7D7D" d="M195.1,238.1l-47.8-50.5v48.6h-3.6v-57.3l47.8,50.1v-49.4h3.6V238.1z"/>
	<path fill="#7D7D7D" d="M241.2,189c-1.3-2.1-2.9-3.7-4.7-4.9c-1.8-1.2-4.1-1.8-6.8-1.8c-1.5,0-2.9,0.3-4.2,0.9
		c-1.3,0.6-2.4,1.4-3.4,2.3c-1,1-1.7,2.1-2.3,3.4c-0.6,1.3-0.8,2.7-0.8,4.2s0.3,2.8,0.9,3.9c0.6,1.1,1.4,2,2.5,2.9
		c1,0.8,2.1,1.5,3.3,2.1c1.2,0.6,2.4,1.2,3.5,1.7l10.9,5.6c2.2,1.4,3.8,2.9,4.9,4.7c1.1,1.8,1.6,4,1.6,6.5c0,2.4-0.5,4.5-1.5,6.5
		c-1,2-2.3,3.7-4,5.2c-1.7,1.5-3.6,2.6-5.7,3.5c-2.1,0.8-4.4,1.2-6.7,1.2c-4,0-7.4-1.1-10.4-3.3c-2.9-2.2-5.1-5.2-6.4-8.8l3.2-1.4
		c1.2,3,2.9,5.5,5.2,7.4c2.2,1.9,5.1,2.9,8.6,2.9c1.9,0,3.6-0.3,5.4-1c1.7-0.7,3.2-1.6,4.5-2.8c1.3-1.2,2.3-2.6,3.1-4.2
		c0.8-1.6,1.1-3.4,1.1-5.3c0-1.6-0.4-3-1.1-4.2c-0.7-1.2-1.7-2.2-2.8-3.1c-1.1-0.9-2.4-1.7-3.7-2.3c-1.4-0.7-2.6-1.3-3.8-1.9
		l-10.3-5.4c-1.9-1.1-3.4-2.6-4.4-4.2c-1-1.7-1.5-3.6-1.5-5.9c0-2.1,0.4-4,1.1-5.8c0.7-1.7,1.7-3.3,3-4.5c1.3-1.3,2.8-2.3,4.6-3
		c1.8-0.7,3.7-1.1,5.8-1.1c2.9,0,5.6,0.7,8.1,2.1c2.5,1.4,4.5,3.4,5.8,5.8L241.2,189z"/>
	<path fill="#7D7D7D" d="M297.9,179.7h3.6v35.3c0,1.5,0,2.9-0.1,4.2c-0.1,1.4-0.2,2.7-0.4,3.9c-0.2,1.3-0.6,2.5-1.1,3.7
		c-0.5,1.2-1.3,2.4-2.2,3.6c-1.9,2.2-4.3,3.9-7,5c-2.8,1.1-5.6,1.7-8.4,1.7c-2.9,0-5.7-0.6-8.4-1.7c-2.8-1.1-5.1-2.7-7-5
		c-1-1.2-1.7-2.4-2.2-3.6c-0.5-1.2-0.9-2.4-1.1-3.7c-0.2-1.3-0.4-2.6-0.4-3.9c-0.1-1.4-0.1-2.7-0.1-4.2v-35.3h3.6v34.2
		c0,1.3,0,2.6,0,3.9c0,1.3,0.1,2.5,0.3,3.8c0.2,1.2,0.5,2.4,0.9,3.5c0.4,1.1,0.9,2.2,1.7,3.1c0.7,0.9,1.6,1.7,2.6,2.4
		c1,0.7,2.1,1.3,3.2,1.7c1.1,0.5,2.3,0.8,3.5,1.1c1.2,0.2,2.4,0.3,3.5,0.3c1.1,0,2.3-0.1,3.5-0.3c1.2-0.2,2.4-0.6,3.5-1.1
		c1.1-0.5,2.2-1.1,3.2-1.7c1-0.7,1.9-1.5,2.6-2.4c0.8-0.9,1.3-2,1.7-3.1c0.4-1.1,0.7-2.3,0.9-3.5c0.2-1.2,0.3-2.5,0.3-3.8
		c0-1.3,0-2.6,0-3.9V179.7z"/>
	<path fill="#7D7D7D" d="M324.4,232.8h14.5v3.4h-18.1v-56.6h3.6V232.8z"/>
	<path fill="#7D7D7D" d="M365.7,236.2H362V183h-14.7v-3.4h33v3.4h-14.7V236.2z"/>
	<path fill="#7D7D7D" d="M398.1,236.2h-3.6v-56.6h3.6V236.2z"/>
	<path fill="#7D7D7D" d="M469.2,238.1l-47.8-50.5v48.6h-3.6v-57.3l47.8,50.1v-49.4h3.6V238.1z"/>
	<path fill="#7D7D7D" d="M542.3,209c0,1.8,0,3.5-0.2,5.2c-0.2,1.7-0.4,3.3-0.9,4.8c-0.4,1.6-1,3.1-1.8,4.6c-0.8,1.5-1.8,2.9-3.1,4.2
		c-2.7,3-6,5.2-9.8,6.8c-3.8,1.6-7.7,2.4-11.8,2.4c-3.9,0-7.7-0.8-11.2-2.3c-3.5-1.5-6.7-3.6-9.3-6.2c-2.7-2.6-4.8-5.7-6.3-9.2
		c-1.6-3.5-2.3-7.2-2.3-11.1c0-4.1,0.8-7.9,2.3-11.4c1.6-3.6,3.7-6.7,6.4-9.3c2.7-2.7,5.8-4.7,9.4-6.3c3.6-1.5,7.4-2.3,11.5-2.3
		c5.2,0,9.8,1.2,14,3.6c4.1,2.4,7.7,5.6,10.7,9.6l-2.9,2.3c-2.6-3.8-5.7-6.7-9.4-8.9c-3.7-2.2-7.9-3.3-12.5-3.3
		c-3.5,0-6.8,0.7-9.9,2.1c-3.1,1.4-5.9,3.3-8.2,5.6c-2.4,2.4-4.2,5.1-5.6,8.2c-1.4,3.1-2.1,6.4-2.1,9.8c0,3.5,0.7,6.8,2,9.9
		c1.4,3.1,3.2,5.8,5.5,8.1c2.3,2.3,5.1,4.2,8.2,5.6c3.1,1.4,6.5,2.1,10,2.1c3.1,0,6-0.6,8.9-1.7c2.9-1.1,5.5-2.6,7.8-4.5
		c2.5-2.1,4.2-4.4,5.2-6.8c1-2.4,1.6-5.2,1.7-8.3h-20.4V209H542.3z"/>
</g>
<g>
	<path d="M182.1,7.1h20c7.7,0,15.2,0.6,22.4,1.7c7.3,1.1,13.7,3.2,19.3,6.2c5.6,3,10.1,7.2,13.4,12.5c3.3,5.3,5,12.1,5,20.6
		c0,2.8-0.4,5.6-1.2,8.4c-0.8,2.8-2,5.5-3.5,8.1c-1.5,2.6-3.4,4.9-5.6,6.9c-2.2,2-4.6,3.7-7.4,4.9v0.4c4.8,0.8,9.2,2.4,13.3,4.8
		c4.1,2.4,7.5,5.3,10.5,8.8c2.9,3.5,5.2,7.3,6.8,11.5c1.6,4.2,2.4,8.4,2.4,12.8c0,7.5-1.6,13.9-4.8,19.2c-3.2,5.3-7.5,9.6-12.8,13
		c-5.4,3.4-11.5,5.8-18.3,7.3c-6.8,1.5-13.9,2.3-21.1,2.3h-38.3V7.1z M202.6,73.3h5.2c4.8,0,9.3-0.3,13.6-0.9
		c4.3-0.6,8-1.8,11.2-3.6c3.2-1.8,5.7-4.3,7.6-7.5c1.9-3.2,2.8-7.6,2.8-13c0-5.3-0.9-9.5-2.7-12.7c-1.8-3.2-4.3-5.6-7.5-7.4
		c-3.2-1.8-6.9-3-11.1-3.6c-4.2-0.6-8.7-0.9-13.5-0.9h-5.7V73.3z M202.6,139.8h15.7c4.8,0,9.5-0.4,14-1.1c4.6-0.7,8.7-2.1,12.4-4.1
		c3.7-2,6.7-4.7,8.9-8.1c2.2-3.4,3.4-7.8,3.4-13.1c0-5.3-1.3-9.6-3.9-12.9c-2.6-3.3-6-5.9-10.1-7.7c-4.1-1.8-8.7-3.1-13.6-3.8
		c-4.9-0.7-9.7-1-14.2-1h-12.6V139.8z"/>
	<path d="M298.4,0l123.3,117.4V7.1h20.5v155.4L318.9,45.1v111.3h-20.5V0z"/>
	<path d="M491.8,139.4h49.9v17h-70.3V7.1h20.5V139.4z"/>
</g>
<g id="Logo">
	<g id="Shape_4">
		<g>
			<g>
				<rect x="117.5" y="6.5" fill="#02498B" width="37.7" height="150.4"/>
			</g>
		</g>
	</g>
	<g id="Shape_5">
		<g>
			<g>
				<rect x="79.8" y="36.6" fill="#205F99" width="37.7" height="120.4"/>
			</g>
		</g>
	</g>
	<g id="Shape_6">
		<g>
			<g>
				<rect x="42.4" y="68.1" fill="#3070AA" width="37.4" height="88.8"/>
			</g>
		</g>
	</g>
	<g id="Shape_7">
		<g>
			<g>
				<rect x="4.7" y="96.8" fill="#5591C7" width="37.7" height="60.2"/>
			</g>
		</g>
	</g>
</g>
</svg>
